<mxfile host="localhost" agent="Mozilla/5.0 (X11; Linux aarch64) AppleWebKit/537.36 (KHTML, like Gecko) Draw/1.0.0 Chrome/126.0.6478.234 Electron/31.4.0 Safari/537.36" version="24.7.8">
  <diagram name="Page-1" id="Iy5Gy3oJMp0WDw8UsXjZ">
    <mxGraphModel dx="1529" dy="1086" grid="1" gridSize="10" guides="1" tooltips="1" connect="1" arrows="1" fold="1" page="1" pageScale="1" pageWidth="2339" pageHeight="3300" math="0" shadow="0">
      <root>
        <mxCell id="0" />
        <mxCell id="1" parent="0" />
        <mxCell id="Pe8lo3vSmt820FT3Q5rz-1" value="" style="strokeColor=#dddddd;shadow=1;strokeWidth=1;rounded=1;absoluteArcSize=1;arcSize=2;" parent="1" vertex="1">
          <mxGeometry x="290" y="310" width="130" height="60" as="geometry" />
        </mxCell>
        <mxCell id="Pe8lo3vSmt820FT3Q5rz-2" value="&lt;font color=&quot;#000000&quot;&gt;Name&lt;/font&gt;&lt;br&gt;Kubernetes" style="sketch=0;dashed=0;connectable=0;html=1;fillColor=#5184F3;strokeColor=none;shape=mxgraph.gcp2.kubernetes_logo;part=1;labelPosition=right;verticalLabelPosition=middle;align=left;verticalAlign=middle;spacingLeft=5;fontColor=#999999;fontSize=12;" parent="Pe8lo3vSmt820FT3Q5rz-1" vertex="1">
          <mxGeometry width="45" height="43.65" relative="1" as="geometry">
            <mxPoint x="5" y="7.675000000000001" as="offset" />
          </mxGeometry>
        </mxCell>
        <mxCell id="Pe8lo3vSmt820FT3Q5rz-3" value="" style="aspect=fixed;sketch=0;html=1;dashed=0;whitespace=wrap;verticalLabelPosition=bottom;verticalAlign=top;fillColor=#2875E2;strokeColor=#ffffff;points=[[0.005,0.63,0],[0.1,0.2,0],[0.9,0.2,0],[0.5,0,0],[0.995,0.63,0],[0.72,0.99,0],[0.5,1,0],[0.28,0.99,0]];shape=mxgraph.kubernetes.icon2;prIcon=node" parent="1" vertex="1">
          <mxGeometry x="825" y="130" width="50" height="48" as="geometry" />
        </mxCell>
        <mxCell id="P-Pcl6KU0PkGLx3dQuE6-1" value="&lt;b&gt;&lt;font style=&quot;font-size: 15px;&quot;&gt;cluster-0-control-plane&lt;/font&gt;&lt;/b&gt;" style="text;html=1;align=center;verticalAlign=middle;resizable=0;points=[];autosize=1;strokeColor=none;fillColor=none;" vertex="1" parent="1">
          <mxGeometry x="755" y="110" width="190" height="30" as="geometry" />
        </mxCell>
        <mxCell id="P-Pcl6KU0PkGLx3dQuE6-2" value="" style="aspect=fixed;sketch=0;html=1;dashed=0;whitespace=wrap;verticalLabelPosition=bottom;verticalAlign=top;fillColor=#2875E2;strokeColor=#ffffff;points=[[0.005,0.63,0],[0.1,0.2,0],[0.9,0.2,0],[0.5,0,0],[0.995,0.63,0],[0.72,0.99,0],[0.5,1,0],[0.28,0.99,0]];shape=mxgraph.kubernetes.icon2;kubernetesLabel=1;prIcon=ns" vertex="1" parent="1">
          <mxGeometry x="880" y="270" width="50" height="48" as="geometry" />
        </mxCell>
        <mxCell id="P-Pcl6KU0PkGLx3dQuE6-3" value="&lt;b&gt;&lt;font style=&quot;font-size: 17px;&quot;&gt;NS&lt;/font&gt;&lt;/b&gt;" style="text;html=1;align=center;verticalAlign=middle;resizable=0;points=[];autosize=1;strokeColor=none;fillColor=none;" vertex="1" parent="1">
          <mxGeometry x="880" y="250" width="50" height="30" as="geometry" />
        </mxCell>
        <mxCell id="P-Pcl6KU0PkGLx3dQuE6-4" value="" style="aspect=fixed;sketch=0;html=1;dashed=0;whitespace=wrap;verticalLabelPosition=bottom;verticalAlign=top;fillColor=#2875E2;strokeColor=#ffffff;points=[[0.005,0.63,0],[0.1,0.2,0],[0.9,0.2,0],[0.5,0,0],[0.995,0.63,0],[0.72,0.99,0],[0.5,1,0],[0.28,0.99,0]];shape=mxgraph.kubernetes.icon2;kubernetesLabel=1;prIcon=svc" vertex="1" parent="1">
          <mxGeometry x="825" y="400" width="50" height="48" as="geometry" />
        </mxCell>
        <mxCell id="P-Pcl6KU0PkGLx3dQuE6-5" value="&lt;b&gt;&lt;font style=&quot;font-size: 17px;&quot;&gt;SVC&lt;/font&gt;&lt;/b&gt;" style="text;html=1;align=center;verticalAlign=middle;resizable=0;points=[];autosize=1;strokeColor=none;fillColor=none;" vertex="1" parent="1">
          <mxGeometry x="820" y="380" width="60" height="30" as="geometry" />
        </mxCell>
        <mxCell id="P-Pcl6KU0PkGLx3dQuE6-6" value="" style="aspect=fixed;sketch=0;html=1;dashed=0;whitespace=wrap;verticalLabelPosition=bottom;verticalAlign=top;fillColor=#2875E2;strokeColor=#ffffff;points=[[0.005,0.63,0],[0.1,0.2,0],[0.9,0.2,0],[0.5,0,0],[0.995,0.63,0],[0.72,0.99,0],[0.5,1,0],[0.28,0.99,0]];shape=mxgraph.kubernetes.icon2;kubernetesLabel=1;prIcon=pod" vertex="1" parent="1">
          <mxGeometry x="960" y="400" width="50" height="48" as="geometry" />
        </mxCell>
        <mxCell id="P-Pcl6KU0PkGLx3dQuE6-7" value="&lt;span style=&quot;font-size: 17px;&quot;&gt;&lt;b&gt;Pods&lt;/b&gt;&lt;/span&gt;" style="text;html=1;align=center;verticalAlign=middle;resizable=0;points=[];autosize=1;strokeColor=none;fillColor=none;" vertex="1" parent="1">
          <mxGeometry x="950" y="380" width="70" height="30" as="geometry" />
        </mxCell>
        <mxCell id="P-Pcl6KU0PkGLx3dQuE6-8" value="" style="aspect=fixed;sketch=0;html=1;dashed=0;whitespace=wrap;verticalLabelPosition=bottom;verticalAlign=top;fillColor=#2875E2;strokeColor=#ffffff;points=[[0.005,0.63,0],[0.1,0.2,0],[0.9,0.2,0],[0.5,0,0],[0.995,0.63,0],[0.72,0.99,0],[0.5,1,0],[0.28,0.99,0]];shape=mxgraph.kubernetes.icon2;kubernetesLabel=1;prIcon=deploy" vertex="1" parent="1">
          <mxGeometry x="710" y="510" width="50" height="48" as="geometry" />
        </mxCell>
        <mxCell id="P-Pcl6KU0PkGLx3dQuE6-9" value="&lt;b&gt;&lt;font style=&quot;font-size: 17px;&quot;&gt;Deployments&lt;/font&gt;&lt;/b&gt;" style="text;html=1;align=center;verticalAlign=middle;resizable=0;points=[];autosize=1;strokeColor=none;fillColor=none;" vertex="1" parent="1">
          <mxGeometry x="670" y="490" width="130" height="30" as="geometry" />
        </mxCell>
        <mxCell id="P-Pcl6KU0PkGLx3dQuE6-11" value="" style="rounded=0;whiteSpace=wrap;html=1;" vertex="1" parent="1">
          <mxGeometry x="1150" y="380" width="245" height="94" as="geometry" />
        </mxCell>
        <mxCell id="P-Pcl6KU0PkGLx3dQuE6-16" style="edgeStyle=orthogonalEdgeStyle;rounded=0;orthogonalLoop=1;jettySize=auto;html=1;" edge="1" parent="1" source="P-Pcl6KU0PkGLx3dQuE6-14">
          <mxGeometry relative="1" as="geometry">
            <mxPoint x="1020" y="428" as="targetPoint" />
          </mxGeometry>
        </mxCell>
        <mxCell id="P-Pcl6KU0PkGLx3dQuE6-14" value="crm-rollout-7f94cbb79-gvzkk    1/1   Running&amp;nbsp;&lt;br&gt;crm-rollout-7f94cbb79-lmc68    1/1   Running&amp;nbsp;&lt;br&gt;dms-rollout-85bc9d4dfd-n722f   1/1   Running&amp;nbsp;&lt;br&gt;dms-rollout-85bc9d4dfd-p4j9n   1/1   Running&amp;nbsp;" style="text;whiteSpace=wrap;html=1;" vertex="1" parent="1">
          <mxGeometry x="1155" y="393" width="240" height="70" as="geometry" />
        </mxCell>
        <mxCell id="P-Pcl6KU0PkGLx3dQuE6-18" value="" style="endArrow=classic;html=1;rounded=0;" edge="1" parent="1" source="P-Pcl6KU0PkGLx3dQuE6-7">
          <mxGeometry width="50" height="50" relative="1" as="geometry">
            <mxPoint x="1020" y="300.5" as="sourcePoint" />
            <mxPoint x="930" y="300" as="targetPoint" />
            <Array as="points">
              <mxPoint x="985" y="300" />
            </Array>
          </mxGeometry>
        </mxCell>
        <mxCell id="P-Pcl6KU0PkGLx3dQuE6-19" value="" style="endArrow=classic;html=1;rounded=0;entryX=0.53;entryY=0;entryDx=0;entryDy=0;entryPerimeter=0;" edge="1" parent="1" target="P-Pcl6KU0PkGLx3dQuE6-28">
          <mxGeometry width="50" height="50" relative="1" as="geometry">
            <mxPoint x="852" y="190" as="sourcePoint" />
            <mxPoint x="1080" y="250" as="targetPoint" />
          </mxGeometry>
        </mxCell>
        <mxCell id="P-Pcl6KU0PkGLx3dQuE6-20" value="" style="aspect=fixed;sketch=0;html=1;dashed=0;whitespace=wrap;verticalLabelPosition=bottom;verticalAlign=top;fillColor=#2875E2;strokeColor=#ffffff;points=[[0.005,0.63,0],[0.1,0.2,0],[0.9,0.2,0],[0.5,0,0],[0.995,0.63,0],[0.72,0.99,0],[0.5,1,0],[0.28,0.99,0]];shape=mxgraph.kubernetes.icon2;prIcon=etcd" vertex="1" parent="1">
          <mxGeometry x="430" y="30" width="50" height="48" as="geometry" />
        </mxCell>
        <mxCell id="P-Pcl6KU0PkGLx3dQuE6-21" value="&lt;b&gt;&lt;font style=&quot;font-size: 17px;&quot;&gt;ETCD&lt;/font&gt;&lt;/b&gt;" style="text;html=1;align=center;verticalAlign=middle;resizable=0;points=[];autosize=1;strokeColor=none;fillColor=none;" vertex="1" parent="1">
          <mxGeometry x="420" y="10" width="70" height="30" as="geometry" />
        </mxCell>
        <mxCell id="P-Pcl6KU0PkGLx3dQuE6-22" value="" style="aspect=fixed;sketch=0;html=1;dashed=0;whitespace=wrap;verticalLabelPosition=bottom;verticalAlign=top;fillColor=#2875E2;strokeColor=#ffffff;points=[[0.005,0.63,0],[0.1,0.2,0],[0.9,0.2,0],[0.5,0,0],[0.995,0.63,0],[0.72,0.99,0],[0.5,1,0],[0.28,0.99,0]];shape=mxgraph.kubernetes.icon2;prIcon=ing" vertex="1" parent="1">
          <mxGeometry x="690" y="322" width="50" height="48" as="geometry" />
        </mxCell>
        <mxCell id="P-Pcl6KU0PkGLx3dQuE6-23" value="&lt;b&gt;&lt;font style=&quot;font-size: 17px;&quot;&gt;Ingress&lt;/font&gt;&lt;/b&gt;" style="text;html=1;align=center;verticalAlign=middle;resizable=0;points=[];autosize=1;strokeColor=none;fillColor=none;" vertex="1" parent="1">
          <mxGeometry x="675" y="300" width="80" height="30" as="geometry" />
        </mxCell>
        <mxCell id="P-Pcl6KU0PkGLx3dQuE6-24" value="" style="aspect=fixed;sketch=0;html=1;dashed=0;whitespace=wrap;verticalLabelPosition=bottom;verticalAlign=top;fillColor=#2875E2;strokeColor=#ffffff;points=[[0.005,0.63,0],[0.1,0.2,0],[0.9,0.2,0],[0.5,0,0],[0.995,0.63,0],[0.72,0.99,0],[0.5,1,0],[0.28,0.99,0]];shape=mxgraph.kubernetes.icon2;kubernetesLabel=1;prIcon=kubelet" vertex="1" parent="1">
          <mxGeometry x="300" y="20" width="50" height="48" as="geometry" />
        </mxCell>
        <mxCell id="P-Pcl6KU0PkGLx3dQuE6-26" value="" style="rounded=1;whiteSpace=wrap;html=1;" vertex="1" parent="1">
          <mxGeometry x="777.5" y="330" width="150" height="40" as="geometry" />
        </mxCell>
        <mxCell id="P-Pcl6KU0PkGLx3dQuE6-28" value="&lt;b&gt;&lt;font style=&quot;font-size: 19px;&quot;&gt;LoadBalancer&lt;/font&gt;&lt;/b&gt;" style="text;html=1;align=center;verticalAlign=middle;resizable=0;points=[];autosize=1;strokeColor=none;fillColor=none;" vertex="1" parent="1">
          <mxGeometry x="772.5" y="330" width="150" height="40" as="geometry" />
        </mxCell>
        <mxCell id="P-Pcl6KU0PkGLx3dQuE6-29" value="" style="endArrow=classic;html=1;rounded=0;" edge="1" parent="1">
          <mxGeometry width="50" height="50" relative="1" as="geometry">
            <mxPoint x="770" y="349.5" as="sourcePoint" />
            <mxPoint x="740" y="349.5" as="targetPoint" />
          </mxGeometry>
        </mxCell>
        <mxCell id="P-Pcl6KU0PkGLx3dQuE6-30" value="" style="endArrow=classic;html=1;rounded=0;exitX=0.5;exitY=1;exitDx=0;exitDy=0;exitPerimeter=0;" edge="1" parent="1" source="P-Pcl6KU0PkGLx3dQuE6-22">
          <mxGeometry width="50" height="50" relative="1" as="geometry">
            <mxPoint x="750" y="470" as="sourcePoint" />
            <mxPoint x="810" y="430" as="targetPoint" />
            <Array as="points">
              <mxPoint x="715" y="430" />
            </Array>
          </mxGeometry>
        </mxCell>
        <mxCell id="P-Pcl6KU0PkGLx3dQuE6-31" value="" style="endArrow=none;html=1;rounded=0;" edge="1" parent="1">
          <mxGeometry width="50" height="50" relative="1" as="geometry">
            <mxPoint x="850" y="300" as="sourcePoint" />
            <mxPoint x="880" y="300" as="targetPoint" />
          </mxGeometry>
        </mxCell>
        <mxCell id="P-Pcl6KU0PkGLx3dQuE6-32" value="" style="endArrow=classic;html=1;rounded=0;" edge="1" parent="1">
          <mxGeometry width="50" height="50" relative="1" as="geometry">
            <mxPoint x="875" y="430" as="sourcePoint" />
            <mxPoint x="965" y="430" as="targetPoint" />
          </mxGeometry>
        </mxCell>
        <mxCell id="P-Pcl6KU0PkGLx3dQuE6-36" value="" style="rounded=1;whiteSpace=wrap;html=1;" vertex="1" parent="1">
          <mxGeometry x="890" y="178" width="110" height="40" as="geometry" />
        </mxCell>
        <mxCell id="P-Pcl6KU0PkGLx3dQuE6-37" value="&lt;b&gt;&lt;font style=&quot;font-size: 19px;&quot;&gt;nodePort&lt;/font&gt;&lt;/b&gt;" style="text;html=1;align=center;verticalAlign=middle;resizable=0;points=[];autosize=1;strokeColor=none;fillColor=none;" vertex="1" parent="1">
          <mxGeometry x="890" y="182" width="110" height="40" as="geometry" />
        </mxCell>
      </root>
    </mxGraphModel>
  </diagram>
</mxfile>
